# Blender v3.0.1 OBJ File: 'untitled.blend'
# www.blender.org
mtllib model.mtl
o cola
v -0.025061 0.000000 -0.057500
v -0.023154 -0.009591 -0.057500
v -0.017721 -0.017721 -0.057500
v -0.009591 -0.023154 -0.057500
v 0.000000 -0.025061 -0.057500
v 0.009591 -0.023154 -0.057500
v 0.017721 -0.017721 -0.057500
v 0.023154 -0.009591 -0.057500
v 0.025061 0.000000 -0.057500
v 0.023154 0.009591 -0.057500
v 0.017721 0.017721 -0.057500
v 0.009591 0.023154 -0.057500
v 0.000000 0.025061 -0.057500
v -0.009591 0.023154 -0.057500
v -0.017721 0.017721 -0.057500
v -0.023154 0.009591 -0.057500
v -0.025494 0.000000 0.057500
v -0.023554 -0.009756 0.057500
v -0.018027 -0.018027 0.057500
v -0.009756 -0.023554 0.057500
v 0.000000 -0.025494 0.057500
v 0.009756 -0.023554 0.057500
v 0.018027 -0.018027 0.057500
v 0.023554 -0.009756 0.057500
v 0.025494 0.000000 0.057500
v 0.023554 0.009756 0.057500
v 0.018027 0.018027 0.057500
v 0.009756 0.023554 0.057500
v 0.000000 0.025494 0.057500
v -0.009756 0.023554 0.057500
v -0.018027 0.018027 0.057500
v -0.023554 0.009756 0.057500
v -0.013394 -0.032336 0.042500
v 0.000000 -0.035000 0.042500
v 0.013394 0.032336 0.042500
v 0.000000 0.035000 0.042500
v 0.013394 -0.032336 0.042500
v -0.013394 0.032336 0.042500
v 0.024749 -0.024749 0.042500
v -0.024749 0.024749 0.042500
v 0.032336 -0.013394 0.042500
v -0.032336 0.013394 0.042500
v 0.035000 0.000000 0.042500
v -0.035000 0.000000 0.042500
v -0.032336 -0.013394 0.042500
v 0.032336 0.013394 0.042500
v -0.024749 -0.024749 0.042500
v 0.024749 0.024749 0.042500
v 0.000000 -0.035000 -0.047500
v 0.000000 0.035000 -0.047500
v 0.013394 -0.032336 -0.047500
v -0.013394 0.032336 -0.047500
v 0.024749 -0.024749 -0.047500
v -0.024749 0.024749 -0.047500
v 0.032336 -0.013394 -0.047500
v -0.032336 0.013394 -0.047500
v 0.035000 0.000000 -0.047500
v -0.032336 -0.013394 -0.047500
v 0.032336 0.013394 -0.047500
v -0.024749 -0.024749 -0.047500
v 0.024749 0.024749 -0.047500
v -0.013394 -0.032336 -0.047500
v 0.013394 0.032336 -0.047500
v -0.035000 0.000000 -0.047500
v 0.000000 0.000000 -0.057500
v -0.025420 -0.010529 0.057500
v -0.027515 0.000000 0.057500
v -0.019456 -0.019456 0.057500
v -0.010529 -0.025420 0.057500
v 0.000000 -0.027515 0.057500
v 0.010529 -0.025420 0.057500
v 0.019456 -0.019456 0.057500
v 0.025420 -0.010529 0.057500
v 0.027515 0.000000 0.057500
v 0.025420 0.010529 0.057500
v 0.019456 0.019456 0.057500
v 0.010529 0.025420 0.057500
v 0.000000 0.027515 0.057500
v -0.010529 0.025420 0.057500
v -0.019456 0.019456 0.057500
v -0.025420 0.010529 0.057500
v -0.010962 -0.004541 0.056623
v -0.011865 0.000000 0.056623
v 0.011865 0.000000 0.056623
v -0.010962 0.004541 0.056623
v 0.010962 -0.004541 0.056623
v -0.008390 0.008390 0.056623
v 0.008390 -0.008390 0.056623
v -0.004541 0.010962 0.056623
v 0.004541 -0.010962 0.056623
v 0.000000 0.011865 0.056623
v 0.000000 -0.011865 0.056623
v 0.004541 0.010962 0.056623
v -0.004541 -0.010962 0.056623
v -0.008390 -0.008390 0.056623
v 0.008390 0.008390 0.056623
v 0.010962 0.004541 0.056623
v 0.000000 0.000000 0.057175
v 0.021925 0.009081 0.055711
v 0.016780 0.016780 0.055711
v -0.016780 -0.016780 0.055711
v -0.009081 -0.021925 0.055711
v 0.009081 0.021924 0.055711
v 0.000000 -0.023731 0.055711
v 0.000000 0.023731 0.055711
v 0.009081 -0.021925 0.055711
v -0.009081 0.021924 0.055711
v 0.016780 -0.016780 0.055711
v -0.016780 0.016780 0.055711
v 0.021925 -0.009081 0.055711
v -0.021925 0.009081 0.055711
v 0.023731 0.000000 0.055711
v -0.023731 0.000000 0.055711
v -0.021925 -0.009081 0.055711
v -0.028183 -0.011674 -0.057500
v -0.030505 0.000000 -0.057500
v -0.021571 -0.021571 -0.057500
v -0.011674 -0.028183 -0.057500
v 0.000000 -0.030506 -0.057500
v 0.011674 -0.028183 -0.057500
v 0.021571 -0.021571 -0.057500
v 0.028183 -0.011674 -0.057500
v 0.030505 0.000000 -0.057500
v 0.028183 0.011674 -0.057500
v 0.021571 0.021571 -0.057500
v 0.011674 0.028183 -0.057500
v 0.000000 0.030505 -0.057500
v -0.011674 0.028183 -0.057500
v -0.021571 0.021571 -0.057500
v -0.028183 0.011674 -0.057500
vt 0.101243 0.879326
vt 0.101243 0.907489
vt 0.058627 0.902107
vt 0.016011 0.896724
vt 0.022499 0.869380
vt 0.016011 0.924887
vt 0.094755 0.934833
vt 0.034487 0.847019
vt 0.082767 0.957195
vt 0.050150 0.833044
vt 0.067104 0.971170
vt 0.067104 0.829583
vt 0.050150 0.974630
vt 0.082767 0.837164
vt 0.034487 0.967050
vt 0.094755 0.854631
vt 0.022499 0.949582
vt 0.313584 0.753430
vt 0.218112 0.793237
vt 0.267622 0.804982
vt 0.745721 0.764599
vt 0.797366 0.809922
vt 0.804114 0.760155
vt 0.314369 0.749060
vt 0.368129 0.795263
vt 0.370356 0.752655
vt 0.865714 0.764111
vt 0.863264 0.810989
vt 0.415759 0.794903
vt 0.430944 0.752198
vt 0.932376 0.763607
vt 0.915669 0.810593
vt 0.459755 0.791411
vt 0.486908 0.747756
vt 0.964075 0.806751
vt 0.993949 0.758720
vt 0.544584 0.759465
vt 0.542942 0.799913
vt 0.072725 0.750886
vt 0.126486 0.797089
vt 0.128713 0.754481
vt 0.292375 0.009782
vt 0.221435 0.003147
vt 0.307565 0.060390
vt 0.542553 0.759795
vt 0.611533 0.799954
vt 0.616277 0.752287
vt 0.189301 0.754024
vt 0.174117 0.796729
vt 0.682866 0.760377
vt 0.663881 0.806314
vt 0.245265 0.749582
vt 0.727290 0.808718
vt 0.744474 0.763435
vt 0.108693 0.932847
vt 0.107859 0.901067
vt 0.111416 0.900620
vt 0.097102 0.956960
vt 0.105630 0.931764
vt 0.099128 0.959285
vt 0.082642 0.975691
vt 0.069712 0.987362
vt 0.085152 0.978251
vt 0.049742 0.990095
vt 0.068756 0.985388
vt 0.028606 0.974920
vt 0.050450 0.984354
vt 0.008532 0.879711
vt 0.012090 0.913112
vt 0.008532 0.913559
vt 0.685519 0.050478
vt 0.747119 0.050796
vt 0.182210 0.073535
vt 0.234438 0.051156
vt 0.618952 0.049071
vt 0.117878 0.076460
vt 0.525449 0.052753
vt 0.031928 0.054243
vt 0.063148 0.071078
vt 0.476082 0.030233
vt 0.524418 0.053927
vt 0.920451 0.052284
vt 0.976276 0.052882
vt 0.421357 0.060380
vt 0.853789 0.052788
vt 0.362017 0.056599
vt 0.792199 0.052270
vt 0.304790 0.054473
vt 0.745057 0.050811
vt 0.269267 0.055437
vt 0.292375 0.009782
vt 0.314493 0.003704
vt 0.763145 0.001124
vt 0.804251 0.007934
vt 0.363291 0.009740
vt 0.857941 0.011382
vt 0.416099 0.008971
vt 0.916043 0.010943
vt 0.464877 0.001515
vt 0.969710 0.006684
vt 0.533443 0.017579
vt 0.571296 0.008511
vt 0.121648 0.010013
vt 0.041167 0.044671
vt 0.066907 0.002356
vt 0.624782 0.001037
vt 0.174456 0.007623
vt 0.682820 0.008088
vt 0.223233 0.005032
vt 0.736518 0.010754
vt 0.008945 0.950351
vt 0.002474 0.912856
vt 0.016364 0.946423
vt 0.026297 0.980168
vt 0.070523 0.994271
vt 0.047198 0.994647
vt 0.102584 0.963807
vt 0.087462 0.984438
vt 0.112275 0.935017
vt 0.108527 0.863423
vt 0.114751 0.900512
vt 0.091590 0.836016
vt 0.105070 0.866540
vt 0.072008 0.819530
vt 0.089532 0.830768
vt 0.053000 0.820882
vt 0.073237 0.816948
vt 0.072500 0.823983
vt 0.033716 0.823539
vt 0.052262 0.813546
vt 0.016364 0.850030
vt 0.028525 0.822850
vt 0.030834 0.829036
vt 0.016027 0.845508
vt 0.004455 0.877541
vt 0.032851 0.968719
vt 0.019380 0.853977
vt 0.012090 0.881604
vt 0.019380 0.943703
vt 0.050449 0.825954
vt 0.032850 0.834435
vt 0.053643 0.826361
vt 0.071197 0.821652
vt 0.087098 0.845460
vt 0.070489 0.827393
vt 0.100569 0.870477
vt 0.073536 0.876275
vt 0.080271 0.888783
vt 0.059974 0.901235
vt 0.055212 0.945722
vt 0.046412 0.937904
vt 0.064736 0.868458
vt 0.064737 0.947657
vt 0.055212 0.866522
vt 0.073537 0.943417
vt 0.046412 0.870762
vt 0.080272 0.933646
vt 0.039677 0.880533
vt 0.083916 0.919832
vt 0.036032 0.894347
vt 0.083916 0.904078
vt 0.039677 0.925396
vt 0.036032 0.910101
vt 0.014651 0.862271
vt 0.029243 0.835052
vt 0.048309 0.818041
vt 0.068945 0.824129
vt 0.087386 0.831738
vt 0.102603 0.844318
vt 0.110500 0.874378
vt 0.110500 0.908659
vt 0.102603 0.941942
vt 0.088011 0.969162
vt 0.068945 0.986172
vt 0.048309 0.990385
vt 0.029244 0.981158
vt 0.014651 0.959896
vt 0.006754 0.905253
vt 0.004910 0.890482
vt 0.795633 0.810887
vt 0.324115 0.792436
vt 0.071576 0.776425
vt 0.025899 0.758378
vt 0.037879 0.770842
vt 0.544421 0.798714
vt 0.046087 0.816354
vt 0.071857 0.823583
vn 0.0000 0.0000 1.0000
vn 0.0000 0.9748 -0.2232
vn 0.2183 0.5270 -0.8213
vn 0.0000 0.5704 -0.8213
vn -0.3730 -0.9005 -0.2232
vn 0.0000 -0.5704 -0.8213
vn 0.0000 -0.9748 -0.2232
vn -0.2183 0.5270 -0.8213
vn -0.3730 0.9005 -0.2232
vn 0.3730 -0.9005 -0.2232
vn 0.2183 -0.5270 -0.8213
vn -0.4033 0.4033 -0.8213
vn -0.6892 0.6893 -0.2232
vn 0.6892 -0.6893 -0.2232
vn 0.4033 -0.4033 -0.8213
vn -0.5270 0.2183 -0.8213
vn -0.9005 0.3730 -0.2232
vn 0.5270 -0.2183 -0.8213
vn 0.9005 -0.3730 -0.2232
vn -0.9748 0.0000 -0.2232
vn -0.5704 0.0000 -0.8213
vn 0.9748 0.0000 -0.2232
vn 0.5270 0.2183 -0.8213
vn 0.9005 0.3730 -0.2232
vn 0.5704 0.0000 -0.8213
vn -0.5270 -0.2183 -0.8213
vn -0.9005 -0.3730 -0.2232
vn 0.6893 0.6892 -0.2232
vn 0.4033 0.4033 -0.8213
vn -0.6892 -0.6893 -0.2232
vn -0.4033 -0.4033 -0.8213
vn 0.3730 0.9005 -0.2232
vn -0.2183 -0.5270 -0.8213
vn 0.3174 -0.1314 -0.9391
vn 0.3948 0.0000 -0.9188
vn 0.3435 0.0000 -0.9391
vn 0.2792 -0.2792 -0.9188
vn 0.3647 -0.1511 -0.9188
vn 0.2429 -0.2429 -0.9391
vn 0.1511 -0.3647 -0.9188
vn 0.0000 -0.3435 -0.9391
vn 0.1314 -0.3174 -0.9391
vn -0.1314 -0.3174 -0.9391
vn 0.0000 -0.3948 -0.9188
vn -0.2429 -0.2429 -0.9391
vn -0.1511 -0.3647 -0.9188
vn -0.3174 0.1314 -0.9391
vn -0.3948 0.0000 -0.9188
vn -0.3435 0.0000 -0.9391
vn -0.6922 -0.6922 0.2045
vn -0.3746 -0.9044 0.2045
vn 0.6922 0.6922 0.2045
vn 0.3746 0.9044 0.2045
vn -0.9044 -0.3746 0.2045
vn 0.9044 0.3746 0.2045
vn -0.9789 0.0000 0.2045
vn 0.9044 -0.3746 0.2045
vn 0.9789 0.0000 0.2045
vn -0.9044 0.3746 0.2045
vn 0.6922 -0.6922 0.2045
vn -0.6922 0.6922 0.2045
vn 0.3746 -0.9044 0.2045
vn -0.3746 0.9044 0.2045
vn 0.0000 -0.9789 0.2045
vn 0.0000 0.9789 0.2045
vn 0.2248 0.5428 0.8092
vn 0.0000 0.5876 0.8092
vn -0.2248 -0.5428 0.8092
vn 0.0000 -0.5876 0.8092
vn -0.2248 0.5428 0.8092
vn 0.2248 -0.5428 0.8092
vn -0.4155 0.4154 0.8092
vn 0.4155 -0.4154 0.8092
vn -0.5428 0.2248 0.8092
vn 0.5428 -0.2248 0.8092
vn -0.5876 0.0000 0.8092
vn 0.5428 0.2248 0.8092
vn 0.5876 0.0000 0.8092
vn -0.5428 -0.2248 0.8092
vn 0.4154 0.4155 0.8092
vn -0.4154 -0.4154 0.8092
vn -0.3174 -0.1314 -0.9391
vn 0.2429 0.2429 -0.9391
vn 0.3174 0.1314 -0.9391
vn 0.0000 0.3435 -0.9391
vn 0.1314 0.3174 -0.9391
vn -0.2429 0.2429 -0.9391
vn -0.1314 0.3174 -0.9391
vn -0.2792 -0.2792 -0.9188
vn -0.2792 0.2792 -0.9188
vn -0.3647 0.1511 -0.9188
vn -0.3647 -0.1511 -0.9188
vn 0.0000 0.3948 -0.9188
vn -0.1511 0.3647 -0.9188
vn 0.2792 0.2792 -0.9188
vn 0.1511 0.3647 -0.9188
vn 0.3647 0.1511 -0.9188
vn -0.0448 -0.0448 -0.9980
vn -0.0586 -0.0243 -0.9980
vn 0.0000 0.0000 -1.0000
vn 0.0243 0.0586 -0.9980
vn 0.0448 0.0448 -0.9980
vn -0.0243 -0.0586 -0.9980
vn 0.0000 0.0634 -0.9980
vn 0.0000 -0.0634 -0.9980
vn -0.0243 0.0586 -0.9980
vn 0.0243 -0.0586 -0.9980
vn -0.0448 0.0448 -0.9980
vn 0.0448 -0.0448 -0.9980
vn -0.0586 0.0243 -0.9980
vn 0.0586 -0.0243 -0.9980
vn -0.0634 0.0000 -0.9980
vn 0.0586 0.0243 -0.9980
vn 0.0634 0.0000 -0.9980
usemtl Material.003
s off
f 8/1/1 9/2/1 65/3/1
f 1/4/1 2/5/1 65/3/1
f 16/6/1 1/4/1 65/3/1
f 9/2/1 10/7/1 65/3/1
f 2/5/1 3/8/1 65/3/1
f 10/7/1 11/9/1 65/3/1
f 3/8/1 4/10/1 65/3/1
f 11/9/1 12/11/1 65/3/1
f 4/10/1 5/12/1 65/3/1
f 12/11/1 13/13/1 65/3/1
f 5/12/1 6/14/1 65/3/1
f 13/13/1 14/15/1 65/3/1
f 6/14/1 7/16/1 65/3/1
f 14/15/1 15/17/1 65/3/1
f 7/16/1 8/1/1 65/3/1
f 15/17/1 16/6/1 65/3/1
s 1
f 34/18/2 69/19/3 70/20/4
f 35/21/5 78/22/6 36/23/7
f 34/24/2 71/25/8 37/26/9
f 38/27/10 78/22/6 79/28/11
f 37/26/9 72/29/12 39/30/13
f 40/31/14 79/28/11 80/32/15
f 39/30/13 73/33/16 41/34/17
f 40/31/14 81/35/18 42/36/19
f 43/37/20 73/33/16 74/38/21
f 44/39/22 66/40/23 45/41/24
f 44/42/22 81/43/18 67/44/25
f 43/45/20 75/46/26 46/47/27
f 47/48/28 66/40/23 68/49/29
f 48/50/30 75/46/26 76/51/31
f 47/48/28 69/19/3 33/52/32
f 48/50/30 77/53/33 35/54/5
f 24/55/34 112/56/35 25/57/36
f 24/55/34 108/58/37 110/59/38
f 23/60/39 106/61/40 108/58/37
f 21/62/41 106/61/40 22/63/42
f 20/64/43 104/65/44 21/62/41
f 19/66/45 102/67/46 20/64/43
f 32/68/47 113/69/48 17/70/49
f 61/71/50 35/54/5 63/72/51
f 60/73/52 33/52/32 62/74/53
f 59/75/54 48/50/30 61/71/50
f 58/76/55 47/48/28 60/73/52
f 57/77/56 46/47/27 59/75/54
f 56/78/57 44/39/22 64/79/58
f 64/79/58 45/41/24 58/76/55
f 55/80/59 43/37/20 57/81/56
f 54/82/60 42/36/19 56/83/57
f 53/84/61 41/34/17 55/80/59
f 52/85/62 40/31/14 54/82/60
f 51/86/63 39/30/13 53/84/61
f 50/87/64 38/27/10 52/85/62
f 49/88/65 37/26/9 51/86/63
f 63/89/51 36/23/7 50/87/64
f 62/74/53 34/18/2 49/90/65
f 118/91/66 49/88/65 119/92/67
f 126/93/68 50/87/64 127/94/69
f 120/95/70 49/88/65 51/86/63
f 127/94/69 52/85/62 128/96/71
f 120/95/70 53/84/61 121/97/72
f 128/96/71 54/82/60 129/98/73
f 121/97/72 55/80/59 122/99/74
f 129/98/73 56/83/57 130/100/75
f 122/101/74 57/77/56 123/102/76
f 115/103/77 64/79/58 58/76/55
f 130/104/75 64/79/58 116/105/78
f 124/106/79 57/77/56 59/75/54
f 115/103/77 60/73/52 117/107/80
f 124/106/79 61/71/50 125/108/81
f 117/107/80 62/74/53 118/109/66
f 126/110/68 61/71/50 63/72/51
f 17/70/49 66/111/23 67/112/25
f 18/113/82 68/114/29 66/111/23
f 20/64/43 68/114/29 19/66/45
f 20/64/43 70/115/4 69/116/3
f 22/63/42 70/115/4 21/62/41
f 22/63/42 72/117/12 71/118/8
f 24/55/34 72/117/12 23/60/39
f 25/57/36 73/119/16 24/55/34
f 25/57/36 75/120/26 74/121/21
f 27/122/83 75/120/26 26/123/84
f 27/122/83 77/124/33 76/125/31
f 29/126/85 77/127/33 28/128/86
f 29/126/85 79/129/11 78/130/6
f 31/131/87 79/132/11 30/133/88
f 32/68/47 80/134/15 31/131/87
f 17/70/49 81/135/18 32/68/47
f 18/113/82 101/136/89 19/66/45
f 32/68/47 109/137/90 111/138/91
f 18/113/82 113/69/48 114/139/92
f 30/133/88 109/137/90 31/131/87
f 30/133/88 105/140/93 107/141/94
f 28/128/86 105/142/93 29/126/85
f 28/143/86 100/144/95 103/145/96
f 26/123/84 100/144/95 27/122/83
f 26/123/84 112/56/35 99/146/97
f 96/147/98 97/148/99 98/149/100
f 94/150/101 95/151/102 98/149/100
f 93/152/103 96/147/98 98/149/100
f 92/153/104 94/150/101 98/149/100
f 91/154/105 93/152/103 98/149/100
f 90/155/106 92/153/104 98/149/100
f 89/156/107 91/154/105 98/149/100
f 88/157/108 90/155/106 98/149/100
f 87/158/109 89/156/107 98/149/100
f 86/159/110 88/157/108 98/149/100
f 85/160/111 87/158/109 98/149/100
f 84/161/112 86/159/110 98/149/100
f 82/162/113 83/163/114 98/149/100
f 83/163/114 85/160/111 98/149/100
f 97/148/99 84/161/112 98/149/100
f 95/151/102 82/162/113 98/149/100
f 114/139/92 95/151/102 101/136/89
f 99/146/97 84/161/112 97/148/99
f 111/138/91 83/163/114 113/69/48
f 114/139/92 83/163/114 82/162/113
f 110/59/38 84/161/112 112/56/35
f 111/138/91 87/158/109 85/160/111
f 110/59/38 88/157/108 86/159/110
f 107/141/94 87/158/109 109/137/90
f 106/61/40 88/157/108 108/58/37
f 107/141/94 91/154/105 89/156/107
f 104/65/44 90/155/106 106/61/40
f 103/145/96 91/154/105 105/140/93
f 104/65/44 94/150/101 92/153/104
f 103/145/96 96/147/98 93/152/103
f 102/67/46 95/151/102 94/150/101
f 99/146/97 96/147/98 100/144/95
f 1/4/1 115/164/77 2/5/1
f 2/5/1 117/165/80 3/8/1
f 4/10/1 117/165/80 118/166/66
f 4/10/1 119/167/67 5/12/1
f 6/14/1 119/167/67 120/168/70
f 6/14/1 121/169/72 7/16/1
f 8/1/1 121/169/72 122/170/74
f 8/1/1 123/171/76 9/2/1
f 9/2/1 124/172/79 10/7/1
f 10/7/1 125/173/81 11/9/1
f 11/9/1 126/174/68 12/11/1
f 13/13/1 126/174/68 127/175/69
f 13/13/1 128/176/71 14/15/1
f 15/17/1 128/176/71 129/177/73
f 16/6/1 129/177/73 130/178/75
f 16/6/1 116/179/78 1/4/1
f 34/18/2 33/52/32 69/19/3
f 35/54/5 77/53/33 78/180/6
f 34/24/2 70/181/4 71/25/8
f 38/27/10 36/23/7 78/22/6
f 37/26/9 71/25/8 72/29/12
f 40/31/14 38/27/10 79/28/11
f 39/30/13 72/29/12 73/33/16
f 40/31/14 80/32/15 81/35/18
f 43/37/20 41/34/17 73/33/16
f 44/39/22 67/182/25 66/40/23
f 44/39/22 42/183/19 81/184/18
f 43/45/20 74/185/21 75/46/26
f 47/48/28 45/41/24 66/40/23
f 48/50/30 46/47/27 75/46/26
f 47/48/28 68/49/29 69/19/3
f 48/50/30 76/51/31 77/53/33
f 24/55/34 110/59/38 112/56/35
f 24/55/34 23/60/39 108/58/37
f 23/60/39 22/63/42 106/61/40
f 21/62/41 104/65/44 106/61/40
f 20/64/43 102/67/46 104/65/44
f 19/66/45 101/136/89 102/67/46
f 32/68/47 111/138/91 113/69/48
f 61/71/50 48/50/30 35/54/5
f 60/73/52 47/48/28 33/52/32
f 59/75/54 46/47/27 48/50/30
f 58/76/55 45/41/24 47/48/28
f 57/77/56 43/45/20 46/47/27
f 56/78/57 42/183/19 44/39/22
f 64/79/58 44/39/22 45/41/24
f 55/80/59 41/34/17 43/37/20
f 54/82/60 40/31/14 42/36/19
f 53/84/61 39/30/13 41/34/17
f 52/85/62 38/27/10 40/31/14
f 51/86/63 37/26/9 39/30/13
f 50/87/64 36/23/7 38/27/10
f 49/88/65 34/24/2 37/26/9
f 63/89/51 35/21/5 36/23/7
f 62/74/53 33/52/32 34/18/2
f 118/109/66 62/74/53 49/90/65
f 126/93/68 63/89/51 50/87/64
f 120/95/70 119/92/67 49/88/65
f 127/94/69 50/87/64 52/85/62
f 120/95/70 51/86/63 53/84/61
f 128/96/71 52/85/62 54/82/60
f 121/97/72 53/84/61 55/80/59
f 129/98/73 54/82/60 56/83/57
f 122/99/74 55/80/59 57/81/56
f 115/103/77 116/105/78 64/79/58
f 130/104/75 56/78/57 64/79/58
f 124/106/79 123/102/76 57/77/56
f 115/103/77 58/76/55 60/73/52
f 124/106/79 59/75/54 61/71/50
f 117/107/80 60/73/52 62/74/53
f 126/110/68 125/108/81 61/71/50
f 17/70/49 18/113/82 66/111/23
f 18/113/82 19/66/45 68/114/29
f 20/64/43 69/116/3 68/114/29
f 20/64/43 21/62/41 70/115/4
f 22/63/42 71/118/8 70/115/4
f 22/63/42 23/60/39 72/117/12
f 24/55/34 73/119/16 72/117/12
f 25/57/36 74/121/21 73/119/16
f 25/57/36 26/123/84 75/120/26
f 27/122/83 76/125/31 75/120/26
f 27/122/83 28/143/86 77/124/33
f 29/126/85 78/130/6 77/127/33
f 29/126/85 30/186/88 79/129/11
f 31/131/87 80/134/15 79/132/11
f 32/68/47 81/135/18 80/134/15
f 17/70/49 67/112/25 81/135/18
f 18/113/82 114/139/92 101/136/89
f 32/68/47 31/131/87 109/137/90
f 18/113/82 17/70/49 113/69/48
f 30/133/88 107/141/94 109/137/90
f 30/186/88 29/126/85 105/142/93
f 28/128/86 103/187/96 105/142/93
f 28/143/86 27/122/83 100/144/95
f 26/123/84 99/146/97 100/144/95
f 26/123/84 25/57/36 112/56/35
f 114/139/92 82/162/113 95/151/102
f 99/146/97 112/56/35 84/161/112
f 111/138/91 85/160/111 83/163/114
f 114/139/92 113/69/48 83/163/114
f 110/59/38 86/159/110 84/161/112
f 111/138/91 109/137/90 87/158/109
f 110/59/38 108/58/37 88/157/108
f 107/141/94 89/156/107 87/158/109
f 106/61/40 90/155/106 88/157/108
f 107/141/94 105/140/93 91/154/105
f 104/65/44 92/153/104 90/155/106
f 103/145/96 93/152/103 91/154/105
f 104/65/44 102/67/46 94/150/101
f 103/145/96 100/144/95 96/147/98
f 102/67/46 101/136/89 95/151/102
f 99/146/97 97/148/99 96/147/98
f 1/4/1 116/179/78 115/164/77
f 2/5/1 115/164/77 117/165/80
f 4/10/1 3/8/1 117/165/80
f 4/10/1 118/166/66 119/167/67
f 6/14/1 5/12/1 119/167/67
f 6/14/1 120/168/70 121/169/72
f 8/1/1 7/16/1 121/169/72
f 8/1/1 122/170/74 123/171/76
f 9/2/1 123/171/76 124/172/79
f 10/7/1 124/172/79 125/173/81
f 11/9/1 125/173/81 126/174/68
f 13/13/1 12/11/1 126/174/68
f 13/13/1 127/175/69 128/176/71
f 15/17/1 14/15/1 128/176/71
f 16/6/1 15/17/1 129/177/73
f 16/6/1 130/178/75 116/179/78
