# Blender v3.0.1 OBJ File: ''
# www.blender.org
mtllib model.mtl
o Cube.001_Cube.002
v 0.015000 -0.045000 -0.065000
v 0.015000 -0.045000 0.065000
v -0.015000 -0.045000 -0.065000
v -0.015000 -0.045000 0.065000
v 0.015000 0.045000 -0.065000
v 0.015000 0.045000 0.065000
v -0.015000 0.045000 -0.065000
v -0.015000 0.045000 0.065000
vt 0.077569 0.940459
vt 0.019257 0.069416
vt 0.090098 0.008034
vt 0.998100 0.961184
vt 0.094663 0.005278
vt 0.997479 0.047238
vt 0.083731 0.941095
vt 0.019209 0.066998
vt 0.097306 0.006375
vt 0.998418 0.961204
vt 0.085635 0.006246
vt 1.001271 0.043464
vt 0.505515 0.853397
vt 0.471174 0.887737
vt 0.471174 0.853397
vt 0.004518 0.971499
vt 1.000308 0.965416
vt 0.871134 0.990709
vt 0.005406 0.970592
vt 0.081791 0.936513
vt 0.004127 0.972195
vt 0.078646 0.938037
vt 0.505515 0.887737
vt 0.077446 0.940384
vn 0.0000 -1.0000 0.0000
vn -1.0000 0.0000 0.0000
vn 0.0000 1.0000 0.0000
vn 1.0000 0.0000 0.0000
vn 0.0000 0.0000 -1.0000
vn 0.0000 0.0000 1.0000
usemtl Material.001
s off
f 2/1/1 3/2/1 1/3/1
f 4/4/2 7/5/2 3/6/2
f 8/7/3 5/8/3 7/9/3
f 6/10/4 1/11/4 5/12/4
f 7/13/5 1/14/5 3/15/5
f 4/16/6 6/17/6 8/18/6
f 2/1/1 4/19/1 3/2/1
f 4/4/2 8/20/2 7/5/2
f 8/7/3 6/21/3 5/8/3
f 6/10/4 2/22/4 1/11/4
f 7/13/5 5/23/5 1/14/5
f 4/16/6 2/24/6 6/17/6
